<svg viewBox="0 0 509 432" fill="none" xmlns="http://www.w3.org/2000/svg">
<path d="M480.755 16.9172H136.658V55.6636C136.546 57.4696 135.727 59.1588 134.378 60.3641C133.028 61.5694 131.257 62.1935 129.45 62.1008H124.984C124.984 68.4764 124.43 77.008 122.182 75.2832C119.933 73.5584 118.178 66.4128 117.346 62.0084H116.668H76.6284C74.8162 62.1095 73.0377 61.4892 71.6815 60.283C70.3252 59.0768 69.5016 57.3828 69.3904 55.5712V16.9172H28.3648C24.9 16.9172 21.4691 17.6002 18.2683 18.9271C15.0676 20.254 12.1598 22.1987 9.71119 24.6502C7.26259 27.1017 5.32121 30.0117 3.99807 33.214C2.67493 36.4163 1.99597 39.848 2.00002 43.3128V404.227C2.00002 411.228 4.78098 417.942 9.73111 422.892C14.6812 427.842 21.3951 430.623 28.3956 430.623H480.755C487.75 430.615 494.456 427.83 499.4 422.881C504.343 417.932 507.12 411.222 507.12 404.227V43.3128C507.124 39.848 506.445 36.4163 505.122 33.214C503.799 30.0117 501.857 27.1017 499.409 24.6502C496.96 22.1987 494.052 20.254 490.852 18.9271C487.651 17.6002 484.22 16.9172 480.755 16.9172ZM460.612 142.858L464.123 139.778C464.151 139.738 464.166 139.689 464.166 139.64C464.166 139.59 464.151 139.542 464.123 139.501L461.351 135.774C461.322 135.745 461.303 135.707 461.298 135.666C461.292 135.625 461.301 135.583 461.323 135.548C461.344 135.512 461.376 135.485 461.415 135.47C461.454 135.455 461.496 135.454 461.536 135.466L466.125 136.267C466.157 136.29 466.194 136.302 466.233 136.302C466.272 136.302 466.309 136.29 466.341 136.267L467.542 131.74C467.556 131.707 467.58 131.679 467.61 131.659C467.64 131.639 467.675 131.629 467.711 131.629C467.747 131.629 467.783 131.639 467.813 131.659C467.843 131.679 467.866 131.707 467.881 131.74L470.129 135.867C470.163 135.897 470.207 135.914 470.252 135.914C470.298 135.914 470.342 135.897 470.376 135.867L474.626 133.957C474.662 133.946 474.7 133.944 474.736 133.952C474.773 133.959 474.807 133.977 474.835 134.001C474.863 134.026 474.884 134.058 474.896 134.093C474.908 134.129 474.91 134.167 474.903 134.204L473.24 138.423C473.24 138.423 473.24 138.608 473.24 138.67L477.398 140.826C477.43 140.845 477.456 140.872 477.475 140.904C477.493 140.937 477.503 140.973 477.503 141.01C477.503 141.048 477.493 141.084 477.475 141.117C477.456 141.149 477.43 141.176 477.398 141.195L472.901 142.458C472.901 142.458 472.901 142.458 472.901 142.674L473.794 147.263C473.807 147.302 473.805 147.345 473.791 147.384C473.776 147.422 473.749 147.455 473.713 147.476C473.678 147.498 473.636 147.506 473.595 147.501C473.554 147.496 473.516 147.477 473.486 147.448L469.698 144.706C469.664 144.676 469.62 144.659 469.575 144.659C469.529 144.659 469.486 144.676 469.452 144.706L466.372 148.279C466.357 148.312 466.334 148.34 466.303 148.36C466.273 148.38 466.238 148.39 466.202 148.39C466.166 148.39 466.131 148.38 466.101 148.36C466.071 148.34 466.047 148.312 466.033 148.279L465.786 143.628C465.786 143.579 465.767 143.532 465.732 143.498C465.698 143.463 465.651 143.444 465.602 143.444H460.951C460.873 143.489 460.781 143.501 460.694 143.478C460.608 143.455 460.534 143.398 460.489 143.32C460.444 143.243 460.432 143.151 460.455 143.064C460.478 142.977 460.534 142.903 460.612 142.858ZM460.242 224.694L462.737 227.096C462.737 227.096 462.737 227.096 462.922 227.096L465.54 224.817H465.786L465.417 228.267L468.836 228.883C468.862 228.895 468.884 228.915 468.899 228.94C468.914 228.964 468.922 228.992 468.922 229.021C468.922 229.05 468.914 229.079 468.899 229.103C468.884 229.128 468.862 229.147 468.836 229.16L465.91 231.039V231.224L467.542 234.304C467.542 234.304 467.542 234.55 467.357 234.519L464.092 233.41H463.908L462.552 236.49C462.552 236.49 462.306 236.49 462.275 236.49L461.074 233.226L457.717 234.18L457.563 233.965L459.38 230.885C459.38 230.885 459.38 230.885 459.38 230.7L456.577 228.667V228.421L460.027 227.99L459.873 224.509L460.242 224.694ZM434.986 54.524L440.007 49.904C440.045 49.8385 440.065 49.7641 440.065 49.6884C440.065 49.6127 440.045 49.5384 440.007 49.4728L437.112 43.3128C437.082 43.2513 437.071 43.1822 437.082 43.1146C437.092 43.047 437.122 42.9841 437.169 42.9341C437.216 42.8841 437.276 42.8494 437.343 42.8345C437.41 42.8197 437.479 42.8254 437.543 42.8508L444.042 44.8528C444.1 44.8954 444.17 44.9183 444.242 44.9183C444.314 44.9183 444.384 44.8954 444.442 44.8528L448.323 39.2472C448.355 39.1895 448.402 39.1413 448.459 39.1078C448.515 39.0743 448.58 39.0566 448.646 39.0566C448.712 39.0566 448.777 39.0743 448.834 39.1078C448.891 39.1413 448.938 39.1895 448.97 39.2472L450.448 45.9C450.475 45.9723 450.52 46.0361 450.58 46.0848C450.639 46.1336 450.711 46.1655 450.787 46.1772L457.563 46.7316C457.629 46.7418 457.691 46.7698 457.743 46.8126C457.795 46.8555 457.834 46.9116 457.856 46.9749C457.878 47.0382 457.882 47.1063 457.869 47.172C457.855 47.2376 457.824 47.2984 457.778 47.3476L452.758 51.9676C452.723 52.0285 452.704 52.0975 452.704 52.1678C452.704 52.2381 452.723 52.3072 452.758 52.368L455.653 58.528C455.683 58.5896 455.693 58.6587 455.683 58.7263C455.673 58.7939 455.643 58.8568 455.596 58.9068C455.549 58.9568 455.489 58.9915 455.422 59.0063C455.355 59.0212 455.285 59.0155 455.222 58.99L448.6 57.0188C448.542 56.9763 448.472 56.9534 448.4 56.9534C448.328 56.9534 448.258 56.9763 448.2 57.0188L444.319 62.6244C444.287 62.6822 444.24 62.7304 444.183 62.7639C444.126 62.7974 444.061 62.8151 443.995 62.8151C443.929 62.8151 443.865 62.7974 443.808 62.7639C443.751 62.7304 443.704 62.6822 443.672 62.6244L442.44 55.9716C442.413 55.8994 442.368 55.8356 442.308 55.7868C442.249 55.7381 442.177 55.7062 442.101 55.6944L435.325 55.14C435.249 55.1547 435.169 55.1447 435.099 55.1115C435.028 55.0782 434.97 55.0235 434.932 54.9551C434.894 54.8867 434.879 54.8082 434.889 54.7307C434.899 54.6533 434.933 54.5809 434.986 54.524ZM383.242 119.666L386.045 118.988L385.614 116.124C385.614 116.124 385.614 116.124 385.799 116.124L388.078 117.91H388.232L390.203 115.816H390.419V118.711L393.283 118.927V119.142L391.035 120.96L392.667 123.331V123.516L389.864 122.9C389.864 122.9 389.864 122.9 389.71 122.9L388.848 125.641H388.632L387.37 123.023L384.69 124.101C384.69 124.101 384.505 124.101 384.536 123.916L385.768 121.329L383.273 119.882C383.273 119.882 383.119 119.666 383.242 119.666ZM359.28 200.578L362.637 197.498C362.665 197.457 362.68 197.408 362.68 197.359C362.68 197.31 362.665 197.261 362.637 197.22L360.697 193.062C360.679 193.021 360.673 192.975 360.679 192.931C360.685 192.886 360.704 192.844 360.732 192.809C360.761 192.774 360.799 192.747 360.841 192.732C360.884 192.717 360.93 192.714 360.974 192.724L365.348 194.079C365.389 194.107 365.437 194.122 365.486 194.122C365.536 194.122 365.584 194.107 365.625 194.079L368.243 190.321C368.259 190.281 368.286 190.247 368.322 190.223C368.358 190.199 368.4 190.186 368.443 190.186C368.486 190.186 368.528 190.199 368.564 190.223C368.6 190.247 368.627 190.281 368.643 190.321L369.66 194.787C369.676 194.835 369.704 194.877 369.742 194.909C369.78 194.942 369.826 194.964 369.875 194.972L374.434 195.372C374.485 195.358 374.54 195.364 374.588 195.388C374.635 195.412 374.672 195.453 374.692 195.503C374.711 195.553 374.711 195.608 374.691 195.658C374.672 195.708 374.635 195.749 374.588 195.773L371.23 198.853C371.203 198.894 371.188 198.942 371.188 198.991C371.188 199.041 371.203 199.089 371.23 199.13L373.171 203.288C373.196 203.328 373.207 203.374 373.203 203.421C373.199 203.468 373.179 203.512 373.148 203.546C373.117 203.581 373.075 203.605 373.029 203.614C372.983 203.623 372.936 203.616 372.894 203.596L368.52 202.241C368.479 202.213 368.431 202.198 368.381 202.198C368.332 202.198 368.284 202.213 368.243 202.241L365.44 206.091C365.424 206.131 365.396 206.165 365.361 206.189C365.325 206.214 365.283 206.226 365.24 206.226C365.197 206.226 365.155 206.214 365.119 206.189C365.083 206.165 365.056 206.131 365.04 206.091L364.023 201.594C364.003 201.549 363.973 201.51 363.936 201.478C363.899 201.446 363.855 201.423 363.808 201.409L359.28 200.947C359.254 200.924 359.233 200.896 359.218 200.864C359.204 200.832 359.197 200.797 359.197 200.762C359.197 200.727 359.204 200.693 359.218 200.661C359.233 200.629 359.254 200.601 359.28 200.578ZM320.318 58.0352L325.215 56.8956C325.243 56.8668 325.259 56.8281 325.259 56.7878C325.259 56.7475 325.243 56.7088 325.215 56.68L324.476 51.6904C324.468 51.6479 324.472 51.6038 324.489 51.5639C324.507 51.5241 324.535 51.4903 324.572 51.467C324.608 51.4437 324.651 51.432 324.695 51.4334C324.738 51.4348 324.78 51.4492 324.815 51.4748L328.757 54.5548C328.801 54.5898 328.855 54.6089 328.911 54.6089C328.967 54.6089 329.022 54.5898 329.065 54.5548L332.484 50.8588C332.503 50.8269 332.53 50.8006 332.563 50.7822C332.595 50.7639 332.632 50.7543 332.669 50.7543C332.706 50.7543 332.743 50.7639 332.775 50.7822C332.807 50.8006 332.834 50.8269 332.854 50.8588V56.1872C332.861 56.2389 332.887 56.2862 332.927 56.3201C332.966 56.3541 333.017 56.3726 333.069 56.372L338.09 56.7724C338.122 56.7916 338.148 56.8187 338.166 56.8511C338.185 56.8835 338.194 56.92 338.194 56.9572C338.194 56.9944 338.185 57.031 338.166 57.0634C338.148 57.0958 338.122 57.1229 338.09 57.142L334.147 60.222C334.112 60.2657 334.093 60.3201 334.093 60.376C334.093 60.432 334.112 60.4863 334.147 60.53L336.981 64.688C337.001 64.7022 337.018 64.7202 337.032 64.741C337.045 64.7618 337.054 64.7851 337.058 64.8094C337.062 64.8337 337.062 64.8586 337.057 64.8827C337.051 64.9068 337.041 64.9296 337.027 64.9498C337.013 64.9701 336.995 64.9873 336.974 65.0006C336.953 65.0138 336.93 65.0229 336.906 65.0272C336.881 65.0315 336.856 65.0309 336.832 65.0256C336.808 65.0202 336.785 65.0102 336.765 64.996L331.837 63.8872C331.799 63.8682 331.757 63.8584 331.714 63.8584C331.671 63.8584 331.629 63.8682 331.591 63.8872L330.112 68.692C330.096 68.7321 330.069 68.7664 330.033 68.7905C329.997 68.8147 329.955 68.8276 329.912 68.8276C329.869 68.8276 329.827 68.8147 329.791 68.7905C329.756 68.7664 329.728 68.7321 329.712 68.692L327.525 64.1644C327.484 64.1366 327.436 64.1218 327.387 64.1218C327.337 64.1218 327.289 64.1366 327.248 64.1644L322.566 66.0124C322.524 66.0329 322.477 66.0391 322.431 66.0301C322.385 66.0212 322.343 65.9975 322.312 65.9628C322.281 65.928 322.261 65.884 322.257 65.8374C322.253 65.7908 322.264 65.7441 322.289 65.7044L324.445 61.1768C324.465 61.1595 324.481 61.1382 324.491 61.1143C324.502 61.0904 324.508 61.0645 324.508 61.0382C324.508 61.012 324.502 60.9861 324.491 60.9622C324.481 60.9383 324.465 60.917 324.445 60.8996L320.072 58.374C320.04 58.3372 320.022 58.2909 320.021 58.2427C320.019 58.1944 320.033 58.1469 320.062 58.1079C320.09 58.0688 320.131 58.0404 320.177 58.0273C320.224 58.0141 320.273 58.0169 320.318 58.0352ZM224.16 47.5632C231.275 39.6168 238.914 42.666 245.382 49.442C257.948 44.1752 270.607 40.048 272.516 43.7748C274.426 47.5016 264.139 52.7684 250.956 56.6184C240.71 59.6807 230.13 61.4905 219.448 62.0084C219.402 62.0165 219.355 62.0095 219.314 61.9886C219.272 61.9677 219.239 61.934 219.218 61.8925C219.197 61.851 219.19 61.8039 219.199 61.7582C219.207 61.7124 219.229 61.6706 219.263 61.6388C219.293 56.5344 221.016 51.5841 224.16 47.5632ZM236.08 106.761L233.77 105.991L232.815 108.239H232.63L231.799 105.96L229.458 106.607L230.752 104.512L228.78 103.096V102.911L231.214 102.603V100.17C231.214 100.17 231.214 100.17 231.398 100.17L233.123 101.864L234.94 100.262H235.125L234.879 102.695L237.281 103.126C237.281 103.126 237.281 103.28 237.281 103.311L235.248 104.636L236.08 106.761ZM97.1412 127.366L99.944 126.688L99.5128 123.824C99.5128 123.824 99.5128 123.639 99.6976 123.824L101.977 125.61L103.948 123.516H104.164V126.411L107.028 126.627V126.842L104.78 128.66L106.412 131.031V131.216L103.609 130.6L102.747 133.372H102.531L101.268 130.754C101.268 130.754 101.268 130.754 101.114 130.754L98.4348 131.832C98.4348 131.832 98.25 131.832 98.2808 131.647L99.5128 129.06L97.018 127.612C97.018 127.612 97.018 127.366 97.1412 127.366ZM20.2952 59.2672L23.098 58.5896L22.6668 55.7252C22.6668 55.7252 22.6668 55.7252 22.8516 55.7252L25.1308 57.5116C25.1308 57.5116 25.1308 57.5116 25.2848 57.5116L27.256 55.4172H27.4716V58.3124L30.336 58.528V58.7436L28.0876 60.5608L29.72 62.9324V63.1172L26.9172 62.5012C26.9172 62.5012 26.9172 62.5012 26.7632 62.5012L26.024 65.4272H25.8084L24.5456 62.8092H24.3916L21.712 63.8872C21.712 63.8872 21.5272 63.8872 21.712 63.7024L22.944 61.1152L20.4492 59.6676C20.4492 59.6676 20.172 59.2672 20.2952 59.2672ZM29.0116 205.968L26.8864 207.908C26.8727 207.937 26.8656 207.968 26.8656 208C26.8656 208.032 26.8727 208.064 26.8864 208.093L28.1184 210.68C28.132 210.707 28.1373 210.738 28.1336 210.768C28.1299 210.798 28.1174 210.826 28.0977 210.849C28.0779 210.872 28.0518 210.889 28.0226 210.897C27.9935 210.905 27.9625 210.905 27.9336 210.896L25.1924 210.033C25.1924 210.033 25.1924 210.033 25.0076 210.033L23.3752 212.374H23.1288L22.482 209.571L19.6176 209.325V209.078L21.712 207.138V206.953L20.5108 204.366C20.4659 204.37 20.4212 204.356 20.3865 204.327C20.3519 204.298 20.3301 204.257 20.326 204.212C20.3219 204.167 20.3359 204.122 20.3647 204.088C20.3936 204.053 20.4351 204.031 20.48 204.027L23.2212 204.89C23.2212 204.89 23.2212 204.89 23.3752 204.89L25.0076 202.518C25.0202 202.492 25.0399 202.47 25.0644 202.455C25.0889 202.439 25.1173 202.431 25.1462 202.431C25.1751 202.431 25.2035 202.439 25.228 202.455C25.2525 202.47 25.2722 202.492 25.2848 202.518L25.9008 205.321L28.7652 205.536C28.8183 205.504 28.8822 205.493 28.9429 205.508C29.0035 205.522 29.0559 205.56 29.0886 205.613C29.1213 205.667 29.1315 205.73 29.1171 205.791C29.1027 205.852 29.0647 205.904 29.0116 205.937V205.968ZM53.6516 393.139L48.6312 397.759C48.5928 397.819 48.5723 397.888 48.5723 397.959C48.5723 398.03 48.5928 398.1 48.6312 398.16L51.5264 404.32C51.5508 404.383 51.5575 404.451 51.5457 404.517C51.534 404.584 51.5043 404.646 51.4599 404.697C51.4155 404.747 51.358 404.785 51.2937 404.805C51.2295 404.826 51.1608 404.828 51.0952 404.812L44.5964 402.81C44.5383 402.768 44.4682 402.745 44.3962 402.745C44.3242 402.745 44.2541 402.768 44.196 402.81L40.3152 408.416C40.2833 408.474 40.2364 408.522 40.1795 408.555C40.1227 408.589 40.0578 408.607 39.9918 408.607C39.9258 408.607 39.861 408.589 39.8041 408.555C39.7472 408.522 39.7004 408.474 39.6684 408.416L38.19 401.763C38.1665 401.689 38.122 401.623 38.0619 401.574C38.0017 401.525 37.9285 401.494 37.8512 401.486L31.0752 400.901C31.0088 400.898 30.9448 400.875 30.8912 400.836C30.8376 400.796 30.7968 400.742 30.7738 400.68C30.7508 400.617 30.7467 400.549 30.762 400.485C30.7772 400.42 30.8112 400.361 30.8596 400.316L35.8492 395.696C35.8943 395.633 35.9186 395.557 35.9186 395.48C35.9186 395.403 35.8943 395.327 35.8492 395.264L32.954 389.104C32.9297 389.042 32.923 388.973 32.9347 388.907C32.9464 388.84 32.9761 388.778 33.0205 388.728C33.0649 388.677 33.1224 388.639 33.1867 388.619C33.251 388.598 33.3196 388.596 33.3852 388.612L39.884 390.644C39.9583 390.669 40.0387 390.667 40.1117 390.639C40.1847 390.611 40.2457 390.558 40.2844 390.49L44.1652 384.916C44.1922 384.857 44.2356 384.807 44.2902 384.772C44.3448 384.737 44.4083 384.718 44.4732 384.718C44.5381 384.718 44.6016 384.737 44.6562 384.772C44.7108 384.807 44.7542 384.857 44.7812 384.916L46.2904 391.568C46.3153 391.639 46.361 391.7 46.4215 391.744C46.482 391.788 46.5545 391.813 46.6292 391.815L53.4052 392.4C53.4992 392.359 53.6055 392.357 53.7008 392.395C53.7961 392.432 53.8726 392.506 53.9134 392.6C53.9543 392.694 53.9561 392.801 53.9186 392.896C53.881 392.991 53.8072 393.068 53.7132 393.108L53.6516 393.139ZM70.0988 281.92L66.1256 285.586C66.0882 285.634 66.0678 285.694 66.0678 285.755C66.0678 285.816 66.0882 285.876 66.1256 285.924L68.4356 290.822C68.4653 290.871 68.4787 290.929 68.4739 290.986C68.4692 291.044 68.4466 291.099 68.4093 291.143C68.3719 291.187 68.3218 291.218 68.2657 291.233C68.2097 291.247 68.1507 291.243 68.0968 291.222L62.9224 289.62C62.8709 289.591 62.8125 289.575 62.753 289.575C62.6935 289.575 62.6351 289.591 62.5836 289.62L59.5036 294.086C59.476 294.131 59.4375 294.168 59.3916 294.193C59.3458 294.219 59.2943 294.232 59.2418 294.232C59.1894 294.232 59.1378 294.219 59.092 294.193C59.0462 294.168 59.0076 294.131 58.98 294.086L57.7788 288.789C57.7713 288.729 57.742 288.674 57.6966 288.634C57.6512 288.594 57.5928 288.573 57.5324 288.573L52.1424 288.111C52.0905 288.101 52.0419 288.078 52.0015 288.044C51.961 288.01 51.93 287.966 51.9115 287.917C51.8929 287.867 51.8874 287.814 51.8955 287.762C51.9036 287.709 51.925 287.66 51.9576 287.618L55.9616 283.953C55.9914 283.902 56.007 283.843 56.007 283.784C56.007 283.724 55.9914 283.666 55.9616 283.614L53.6516 278.717C53.622 278.668 53.6086 278.61 53.6133 278.552C53.618 278.495 53.6406 278.44 53.678 278.396C53.7153 278.352 53.7655 278.32 53.8215 278.306C53.8775 278.292 53.9366 278.296 53.9904 278.317L59.1648 279.918C59.2104 279.949 59.264 279.965 59.3188 279.965C59.3736 279.965 59.4272 279.949 59.4728 279.918L62.5528 275.452C62.5761 275.407 62.6115 275.369 62.6549 275.343C62.6984 275.316 62.7483 275.302 62.7992 275.302C62.8501 275.302 62.9 275.316 62.9435 275.343C62.987 275.369 63.0223 275.407 63.0456 275.452L64.2468 280.75C64.2544 280.81 64.2836 280.865 64.329 280.905C64.3745 280.944 64.4329 280.966 64.4932 280.966L69.914 281.428C69.9709 281.419 70.0291 281.428 70.0806 281.453C70.1321 281.479 70.1743 281.52 70.2014 281.571C70.2285 281.622 70.2391 281.68 70.2318 281.737C70.2244 281.794 70.1995 281.847 70.1604 281.89L70.0988 281.92ZM159.08 397.79L153.813 398.991C153.753 398.999 153.698 399.028 153.659 399.073C153.619 399.119 153.597 399.177 153.598 399.238L153.136 404.658C153.132 404.714 153.111 404.767 153.077 404.811C153.042 404.855 152.995 404.887 152.942 404.904C152.889 404.92 152.832 404.92 152.778 404.904C152.725 404.888 152.678 404.856 152.643 404.812L148.947 400.839C148.903 400.804 148.849 400.785 148.793 400.785C148.737 400.785 148.683 400.804 148.639 400.839L143.711 403.149C143.662 403.169 143.609 403.175 143.557 403.166C143.505 403.156 143.457 403.132 143.419 403.097C143.38 403.061 143.352 403.016 143.338 402.965C143.325 402.914 143.326 402.861 143.341 402.81L144.943 397.605C144.97 397.558 144.984 397.505 144.984 397.451C144.984 397.397 144.97 397.344 144.943 397.297L140.477 394.217C140.422 394.198 140.375 394.163 140.342 394.116C140.309 394.069 140.291 394.013 140.291 393.955C140.291 393.898 140.309 393.842 140.342 393.795C140.375 393.748 140.422 393.713 140.477 393.694L145.774 392.492C145.834 392.485 145.889 392.456 145.929 392.41C145.969 392.365 145.991 392.306 145.99 392.246L146.452 386.856C146.45 386.798 146.466 386.74 146.498 386.692C146.53 386.643 146.577 386.606 146.632 386.586C146.686 386.565 146.746 386.562 146.802 386.578C146.858 386.593 146.908 386.626 146.945 386.671L150.61 390.675C150.664 390.698 150.721 390.71 150.779 390.71C150.838 390.71 150.895 390.698 150.949 390.675L155.846 388.365C155.896 388.336 155.953 388.322 156.011 388.327C156.068 388.332 156.123 388.354 156.167 388.392C156.211 388.429 156.243 388.479 156.257 388.535C156.271 388.591 156.267 388.65 156.246 388.704L154.645 393.878C154.61 393.922 154.591 393.976 154.591 394.032C154.591 394.088 154.61 394.143 154.645 394.186L159.111 397.266C159.164 397.288 159.21 397.326 159.24 397.375C159.271 397.424 159.286 397.482 159.283 397.539C159.279 397.597 159.258 397.652 159.221 397.697C159.185 397.742 159.136 397.775 159.08 397.79ZM242.887 358.705L239.807 360.584C239.807 360.584 239.807 360.584 239.807 360.768L241.47 363.848C241.47 363.848 241.47 364.095 241.285 364.033L237.99 362.924L236.604 366.004C236.604 366.004 236.388 366.004 236.357 366.004L235.156 362.77H234.971L231.645 363.694C231.645 363.694 231.398 363.694 231.645 363.479L233.431 360.399V360.183L230.628 358.15V357.904L234.078 357.473L233.924 353.992H234.17L236.634 356.395C236.666 356.417 236.704 356.43 236.742 356.43C236.781 356.43 236.819 356.417 236.85 356.395L239.468 354.085C239.468 354.085 239.714 354.085 239.684 354.085L239.345 357.534C239.331 357.563 239.324 357.595 239.324 357.627C239.324 357.659 239.331 357.69 239.345 357.719L242.764 358.335C242.764 358.335 243.102 358.643 243.01 358.705H242.887ZM328.48 409.063L325.4 410.942V411.126L327.032 414.206C327.046 414.234 327.051 414.264 327.048 414.294C327.044 414.324 327.031 414.353 327.012 414.376C326.992 414.399 326.966 414.415 326.937 414.424C326.907 414.432 326.877 414.431 326.848 414.422L323.583 413.313H323.398L322.043 416.393C322.043 416.393 321.796 416.393 321.766 416.393L320.564 413.128L317.207 414.052V413.837L319.024 410.757V410.572L316.222 408.539C316.196 408.527 316.174 408.507 316.158 408.482C316.143 408.458 316.135 408.43 316.135 408.401C316.135 408.372 316.143 408.343 316.158 408.319C316.174 408.294 316.196 408.275 316.222 408.262L319.671 407.831V404.381H319.918L322.412 406.814C322.412 406.814 322.412 406.814 322.597 406.814L325.215 404.535H325.462L325.092 407.985V408.139L328.511 408.755C328.552 408.759 328.589 408.779 328.615 408.811C328.641 408.843 328.654 408.883 328.649 408.924C328.645 408.965 328.625 409.003 328.593 409.029C328.562 409.055 328.521 409.067 328.48 409.063ZM432.923 340.102L432.676 339.917C430.89 338.654 423.868 333.972 413.242 326.858H412.903L317.792 287.187C315.329 285.877 312.612 285.114 309.827 284.949C307.042 284.784 304.254 285.222 301.653 286.232V286.417C305.275 288.851 308.639 291.648 311.694 294.764L384.444 372.288L365.009 391.907L281.695 331.354C274.12 326.658 265.224 324.55 256.346 325.348C224.992 328.428 182.426 332.71 162.129 326.704C152.399 323.49 143.936 317.28 137.951 308.963C131.553 300.342 126.735 290.654 123.722 280.35V280.165L122.952 280.411C115.159 221.244 124.461 188.011 124.461 188.011C124.461 188.011 89.164 228.667 75.5504 223.924C58.1484 218.01 38.96 145.507 38.96 145.507H39.3912V145.014C38.5904 142.396 31.9068 135.774 26.1472 132.232C23.0672 130.446 19.8024 129.152 17.9236 127.89C17.6122 127.671 17.3581 127.38 17.1826 127.043C17.0072 126.705 16.9156 126.33 16.9156 125.949C16.9156 125.569 17.0072 125.194 17.1826 124.856C17.3581 124.518 17.6122 124.228 17.9236 124.009L17.554 123.485C17.1673 123.133 16.8767 122.688 16.7097 122.192C16.5426 121.696 16.5046 121.166 16.5992 120.652C17.1844 118.865 20.0796 118.434 23.6832 119.019V118.311C24.5148 115.416 28.026 116.124 29.5968 116.401C38.0668 117.941 49.1548 126.873 49.7708 128.968L50.2636 129.522C51.2335 128.807 52.2641 128.178 53.3436 127.643C53.6824 126.904 49.74 118.403 53.744 117.51C55.2532 117.202 56.6392 118.865 57.1936 120.036C58.3332 122.315 60.9204 130.816 58.21 144.891H58.98C72.686 178.771 80.848 192.138 81.8028 192.108C82.7576 192.077 110.2 160.907 121.104 148.187C127.264 141.134 150.21 141.75 150.21 141.75C150.68 139.303 152.027 137.113 153.998 135.59L153.721 135.097C153.721 116.863 152.735 100.293 154.275 82.09V81.8436C153.016 82.326 151.643 82.4254 150.328 82.1295C149.013 81.8336 147.814 81.1555 146.883 80.1804C143.803 76.2688 148.67 62.5012 155.877 68.7536C156.862 61.762 157.14 55.0168 162.745 50.2736C181.533 34.8736 196.625 63.9796 199.705 75.4064C202.416 86.0632 187.385 110.087 183.042 111.781C182.539 111.996 182.011 112.151 181.472 112.243C183.042 119.173 183.474 127.643 186.43 133.803V134.111C187.758 134.609 188.937 135.435 189.858 136.512C190.779 137.589 191.412 138.883 191.697 140.271C191.697 140.271 210.454 140.949 216.06 143.505C225.639 147.91 252.127 188.104 253.02 188.134C253.913 188.165 264.077 174.12 277.66 140.271H278.522C276.028 125.949 278.923 116.956 280.093 114.676C280.678 113.506 282.095 111.874 283.604 112.212C287.578 113.106 283.42 121.606 283.604 122.346C283.604 122.592 285.052 122.962 286.315 123.978L287.177 123.762C287.824 121.668 299.128 113.013 307.659 111.658C309.23 111.412 312.741 110.796 313.511 113.691V114.399C317.146 113.906 320.01 114.399 320.564 116.186C320.646 116.701 320.596 117.228 320.418 117.718C320.24 118.208 319.941 118.645 319.548 118.988L318.686 119.296C319.084 119.449 319.432 119.708 319.692 120.047C319.952 120.385 320.113 120.788 320.158 121.212C320.203 121.636 320.129 122.065 319.945 122.45C319.762 122.834 319.475 123.161 319.117 123.393C317.207 124.717 313.819 125.826 310.801 127.551C304.949 130.939 298.019 138.177 297.187 140.764V141.01H297.618C297.618 141.01 279.138 209.879 262.229 216.994C245.32 224.109 211.656 183.699 211.656 183.699C210.177 225.803 221.789 239.139 227.056 250.32C291.428 227.22 318.1 229.653 342.186 243.913C365.101 257.496 428.703 304.066 428.703 304.066L413.026 326.642L413.242 326.796L429.473 303.727C431.321 301.971 447.399 293.47 456.269 283.276C460.52 278.378 466.926 275.36 472.901 281.243L477.583 284.323L437.543 343.058L432.923 340.102ZM482.973 358.181L480.724 359.998V360.152L482.326 362.524V362.709L479.523 362.093H479.369L478.538 364.865H478.291L477.028 362.278C477.028 362.278 477.028 362.278 476.874 362.278L474.195 363.356C474.195 363.356 474.01 363.356 474.195 363.171L475.458 360.584C475.458 360.584 475.458 360.584 475.458 360.43L472.963 358.982V358.766L475.766 358.089L475.334 355.224H475.55L477.798 357.011L479.77 354.916H479.985V357.812L482.85 358.027L483.034 358.181H482.973Z" fill="black"/>
<path d="M472.778 281.181L432.738 339.916C430.951 338.654 423.929 333.972 413.303 326.857H412.964V326.703L413.18 326.857L429.411 303.788C431.259 302.032 447.337 293.532 456.207 283.337C460.396 278.316 466.803 275.298 472.778 281.181Z" fill="black"/>
<path d="M58.518 144.953H59.288C72.994 178.833 81.156 192.2 82.1108 192.169C83.0656 192.139 110.2 160.907 121.104 148.187C127.264 141.134 150.21 141.75 150.21 141.75C150.68 139.303 152.027 137.113 153.998 135.59C156.308 134.142 175.158 131.586 185.568 133.988C185.791 134.021 186.008 134.083 186.215 134.173C187.542 134.67 188.722 135.496 189.643 136.574C190.564 137.651 191.197 138.944 191.482 140.333C191.482 140.333 210.239 141.011 215.844 143.567C225.423 147.971 251.911 188.165 252.804 188.196C253.698 188.227 263.862 174.182 277.444 140.333H278.307L297.218 140.949H297.649C297.649 140.949 279.169 209.818 262.26 216.933C245.351 224.047 211.656 183.699 211.656 183.699C210.177 225.803 221.789 239.139 227.056 250.32L123.906 280.196L123.136 280.442C115.344 221.275 124.646 188.042 124.646 188.042C124.646 188.042 89.164 228.667 75.5504 223.924C58.1484 218.011 38.96 145.507 38.96 145.507H39.3912L58.518 144.953Z" fill="black"/>
<path d="M301.654 286.11C304.254 285.1 307.042 284.662 309.827 284.827C312.612 284.991 315.329 285.755 317.793 287.065L412.811 326.735V326.581L428.488 304.005C428.488 304.005 364.886 257.435 341.971 243.852C317.885 229.592 290.75 226.82 226.378 250.012" stroke="black" stroke-width="2.6488" stroke-linecap="round" stroke-linejoin="round"/>
<path d="M123.722 280.381C126.735 290.685 131.553 300.373 137.951 308.994C143.944 317.316 152.419 323.527 162.16 326.735C182.334 332.741 225.023 328.521 256.377 325.38C265.254 324.581 274.15 326.689 281.726 331.386L365.009 391.908L384.32 372.134L311.571 294.61C308.516 291.495 305.152 288.698 301.53 286.264C286.777 275.976 255.7 260.854 207.806 269.077" stroke="black" stroke-width="2.6488" stroke-linecap="round" stroke-linejoin="round"/>
<path d="M189.973 79.9345C190.687 79.9345 191.266 79.3553 191.266 78.6409C191.266 77.9265 190.687 77.3473 189.973 77.3473C189.258 77.3473 188.679 77.9265 188.679 78.6409C188.679 79.3553 189.258 79.9345 189.973 79.9345Z" fill="black"/>
<path d="M172.694 79.6562C173.408 79.6562 173.987 79.077 173.987 78.3626C173.987 77.6481 173.408 77.069 172.694 77.069C171.979 77.069 171.4 77.6481 171.4 78.3626C171.4 79.077 171.979 79.6562 172.694 79.6562Z" fill="black"/>
<path d="M88.5483 34.4423H93.7227" stroke="black" stroke-width="2.6488" stroke-linecap="round" stroke-linejoin="round"/>
<path d="M88.5482 34.4418V16.9474L76.9058 34.4418H88.5482Z" stroke="black" stroke-width="2.6488" stroke-linecap="round" stroke-linejoin="round"/>
<path d="M88.5483 44.7603V34.4423" stroke="black" stroke-width="2.6488" stroke-linecap="round" stroke-linejoin="round"/>
<path d="M124.923 34.4423H130.097" stroke="black" stroke-width="2.6488" stroke-linecap="round" stroke-linejoin="round"/>
<path d="M124.922 34.4426V16.979L113.28 34.4426H124.922Z" stroke="black" stroke-width="2.6488" stroke-linecap="round" stroke-linejoin="round"/>
<path d="M124.923 44.7603V34.4423" stroke="black" stroke-width="2.6488" stroke-linecap="round" stroke-linejoin="round"/>
<path d="M103.424 44.792C107.099 44.792 110.077 38.5315 110.077 30.8088C110.077 23.086 107.099 16.8256 103.424 16.8256C99.7502 16.8256 96.7717 23.086 96.7717 30.8088C96.7717 38.5315 99.7502 44.792 103.424 44.792Z" stroke="black" stroke-width="2.6488" stroke-linecap="round" stroke-linejoin="round"/>
<path d="M156 68.5068C156.986 61.5152 157.263 54.77 162.868 50.0268C181.656 34.6268 196.748 63.7328 199.828 75.1596C202.539 85.8164 187.508 109.84 183.166 111.534C182.662 111.749 182.135 111.904 181.595 111.996C175.25 113.167 167.18 107.53 164.439 101.925" stroke="black" stroke-width="2.6488" stroke-miterlimit="10" stroke-linecap="round"/>
<path d="M153.721 135.097C153.721 116.864 152.735 100.293 154.275 82.0906" stroke="black" stroke-width="2.6488" stroke-miterlimit="10"/>
<path d="M181.194 111.627L181.379 112.367C182.95 119.297 183.381 127.767 186.338 133.927" stroke="black" stroke-width="2.6488" stroke-miterlimit="10"/>
<path d="M158.433 71.8334C157.698 70.6883 156.807 69.6516 155.785 68.7534C148.577 62.5934 143.803 76.2686 146.791 80.1802C147.722 81.1553 148.92 81.8334 150.236 82.1293C151.551 82.4252 152.924 82.3258 154.183 81.8434C154.766 81.6658 155.333 81.4392 155.877 81.1658" stroke="black" stroke-width="2.6488" stroke-miterlimit="10" stroke-linecap="round"/>
<path d="M219.202 61.5772C219.263 56.4867 221.007 51.5594 224.16 47.5632C231.275 39.6168 238.914 42.666 245.382 49.442C247.321 51.5403 249.083 53.7965 250.648 56.1872" stroke="black" stroke-width="2.6488" stroke-miterlimit="10" stroke-linecap="round"/>
<path d="M245.32 49.4418C233.831 54.2466 222.405 60.0061 219.263 61.6077C219.229 61.6395 219.206 61.6814 219.198 61.7271C219.19 61.7728 219.197 61.8199 219.218 61.8614C219.238 61.903 219.272 61.9367 219.313 61.9576C219.355 61.9784 219.402 61.9854 219.448 61.9774C230.088 61.4495 240.626 59.6398 250.833 56.5874C264.139 52.7374 274.457 47.563 272.393 43.7438C270.329 39.9246 257.948 44.175 245.32 49.4418Z" stroke="black" stroke-width="2.6488" stroke-miterlimit="10"/>
<path d="M175.897 71.5873C175.384 71.097 174.773 70.721 174.104 70.4841C173.435 70.2473 172.723 70.1549 172.016 70.2131C171.309 70.2713 170.622 70.4788 170.001 70.8218C169.38 71.1649 168.838 71.6357 168.412 72.2033" stroke="black" stroke-width="2.6488" stroke-miterlimit="10" stroke-linecap="round"/>
<path d="M192.313 71.8335C191.8 71.3409 191.188 70.9623 190.518 70.7227C189.848 70.483 189.134 70.3877 188.425 70.443C187.715 70.4982 187.025 70.7028 186.4 71.0433C185.775 71.3838 185.229 71.8525 184.798 72.4187" stroke="black" stroke-width="2.6488" stroke-miterlimit="10" stroke-linecap="round"/>
<path d="M175.065 101.156C176.513 98.4454 181.625 97.583 183.196 100.324" stroke="black" stroke-width="2.6488" stroke-linecap="round" stroke-linejoin="round"/>
<path d="M154.429 74.2974C153.11 75.4957 151.406 76.1837 149.624 76.2378" stroke="black" stroke-width="2.6488" stroke-miterlimit="10" stroke-linecap="round"/>
<path d="M184.705 72.5724C183.196 76.33 184.983 82.2436 185.537 86.1244C185.937 88.804 186.492 93.9476 181.933 92.2844" stroke="black" stroke-width="2.6488" stroke-miterlimit="10" stroke-linecap="round"/>
<path d="M159.295 284.107C159.696 297.844 149.87 305.914 137.951 308.747C135.172 309.422 132.337 309.835 129.481 309.979" stroke="black" stroke-width="2.6488" stroke-miterlimit="10" stroke-linecap="round"/>
<path d="M432.985 340.102L437.42 343.12L477.491 284.385L472.778 281.181L472.624 281.089L432.615 339.825H432.584L432.677 339.886L432.738 339.917L432.985 340.102Z" fill="black" stroke="white" stroke-width="2.6488" stroke-miterlimit="10"/>
<path d="M125.416 62.1015H129.451C131.258 62.1941 133.028 61.57 134.378 60.3647C135.727 59.1594 136.547 57.4703 136.658 55.6643V8.44787C136.555 6.63895 135.738 4.94497 134.386 3.73801C133.035 2.53105 131.26 1.90978 129.451 2.01067H76.5363C74.7241 1.90959 72.9456 2.52992 71.5893 3.73611C70.2331 4.94229 69.4094 6.63627 69.2983 8.44787V55.6643C69.4094 57.4759 70.2331 59.1698 71.5893 60.376C72.9456 61.5822 74.7241 62.2025 76.5363 62.1015H116.576" stroke="black" stroke-width="2.6488" stroke-linecap="round" stroke-linejoin="round"/>
<path d="M116.73 58.2811C116.73 58.2811 116.946 59.8211 117.346 61.9771C118.178 66.3815 119.841 73.4039 122.182 75.2519C124.522 77.0999 124.923 68.4451 124.984 62.0695C124.984 58.4967 124.984 55.5707 124.984 55.5707" stroke="black" stroke-width="2.6488" stroke-linecap="round" stroke-linejoin="round"/>
<path d="M39.5147 145.076C38.7139 142.458 32.0303 135.836 26.2707 132.294C23.1907 130.507 19.9259 129.214 18.0471 127.951C17.7357 127.732 17.4815 127.442 17.3061 127.104C17.1307 126.766 17.0391 126.391 17.0391 126.011C17.0391 125.63 17.1307 125.255 17.3061 124.917C17.4815 124.58 17.7357 124.289 18.0471 124.07C19.0041 123.61 20.0806 123.459 21.1271 123.639C26.8269 125.072 32.1051 127.837 36.5271 131.709" stroke="black" stroke-width="2.6488" stroke-linecap="round" stroke-linejoin="round"/>
<path d="M50.0476 129.029C49.4316 126.935 38.3436 118.003 29.8736 116.463C28.3028 116.186 24.7916 115.477 23.96 118.372" stroke="black" stroke-width="2.6488" stroke-linecap="round" stroke-linejoin="round"/>
<path d="M39.5758 127.274C35.3689 122.892 29.8392 120.014 23.837 119.081C20.2334 118.496 17.3382 119.081 16.753 120.713C16.6584 121.228 16.6964 121.758 16.8635 122.254C17.0305 122.75 17.3211 123.195 17.7078 123.547" stroke="black" stroke-width="2.6488" stroke-linecap="round" stroke-linejoin="round"/>
<path d="M48.7542 134.913C48.5598 133.946 48.6225 132.945 48.936 132.01C49.2494 131.075 49.8027 130.239 50.5406 129.584C51.5105 128.869 52.5411 128.241 53.6206 127.706C53.9594 126.966 50.017 118.466 54.021 117.572C55.5302 117.264 56.793 118.989 57.4706 120.098C58.7026 122.131 61.413 138.948 57.2858 149.204" stroke="black" stroke-width="2.6488" stroke-linecap="round" stroke-linejoin="round"/>
<path d="M297.433 140.825C298.265 138.238 305.195 131 311.047 127.612C314.127 125.887 317.453 124.778 319.363 123.454C319.721 123.222 320.008 122.895 320.191 122.51C320.375 122.126 320.449 121.697 320.404 121.273C320.36 120.849 320.198 120.446 319.938 120.107C319.679 119.769 319.33 119.51 318.932 119.357C318.084 119.052 317.175 118.957 316.283 119.08C310.569 120.389 305.248 123.039 300.76 126.811" stroke="black" stroke-width="2.6488" stroke-linecap="round" stroke-linejoin="round"/>
<path d="M287.331 123.947C287.978 121.853 299.281 113.198 307.813 111.843C309.384 111.596 312.895 110.98 313.665 113.875" stroke="black" stroke-width="2.6488" stroke-linecap="round" stroke-linejoin="round"/>
<path d="M297.834 122.284C302.151 118.015 307.741 115.269 313.758 114.46C317.392 113.968 320.257 114.46 320.811 116.247C320.893 116.762 320.842 117.289 320.664 117.779C320.487 118.27 320.187 118.707 319.795 119.05" stroke="black" stroke-width="2.6488" stroke-linecap="round" stroke-linejoin="round"/>
<path d="M288.44 129.738C288.67 128.693 288.602 127.604 288.242 126.597C287.883 125.589 287.247 124.703 286.407 124.04C285.144 123.023 283.789 122.654 283.697 122.407C283.358 121.668 287.516 113.167 283.697 112.274C282.188 111.935 280.617 113.568 280.186 114.738C277.064 123.673 276.774 133.353 279.354 142.458" stroke="black" stroke-width="2.6488" stroke-linecap="round" stroke-linejoin="round"/>
<path d="M136.411 16.9173H480.755C484.22 16.9173 487.651 17.6002 490.852 18.9271C494.052 20.254 496.96 22.1987 499.409 24.6502C501.857 27.1017 503.799 30.0117 505.122 33.214C506.445 36.4163 507.124 39.848 507.12 43.3129V404.227C507.12 411.228 504.339 417.942 499.389 422.892C494.439 427.842 487.725 430.623 480.724 430.623H28.3648C21.3696 430.615 14.6637 427.83 9.72022 422.881C4.77674 417.932 2.00001 411.222 2.00002 404.227V43.3129C1.99596 39.8454 2.67594 36.4112 4.00101 33.2069C5.32607 30.0026 7.27021 27.0912 9.72207 24.6393C12.1739 22.1874 15.0854 20.2433 18.2897 18.9182C21.494 17.5932 24.9282 16.9132 28.3956 16.9173H69.1132" stroke="black" stroke-width="2.6488" stroke-linecap="round" stroke-linejoin="round"/>
<path d="M431.105 338.808C429.319 337.545 413.827 324.917 413.765 325.009" stroke="white" stroke-width="2.6488" stroke-linecap="square" stroke-linejoin="bevel"/>
<path d="M413.58 324.824L427.502 304.989C429.35 303.233 447.275 293.408 456.146 283.213C460.396 278.316 466.802 275.298 472.778 281.181L432.984 340.101L432.738 339.916" stroke="white" stroke-width="2.6488" stroke-linecap="square" stroke-linejoin="bevel"/>
<path d="M381.733 408.416L385.521 412.235L436.126 362.339L432.122 358.274L432.029 358.151L381.425 408.077H381.394L381.487 408.17L381.517 408.201L381.733 408.416Z" fill="black" stroke="white" stroke-width="2.6488" stroke-miterlimit="10"/>
<path d="M380.132 406.784C378.623 405.213 365.872 389.844 365.81 389.906" stroke="white" stroke-width="2.6488" stroke-linecap="square" stroke-linejoin="bevel"/>
<path d="M365.656 389.69L383.119 372.904C385.275 371.549 404.679 365.389 415.398 357.073C420.541 353.069 427.41 351.344 432.122 358.274L381.733 408.417L381.518 408.201" stroke="white" stroke-width="2.6488" stroke-linecap="square" stroke-linejoin="bevel"/>
<path d="M211.656 183.699C211.656 183.699 245.536 224.17 262.476 217.056C279.416 209.941 297.311 140.733 297.311 140.733L278.369 140.117C264.663 173.997 253.729 188.319 252.897 188.288C252.065 188.258 225.423 148.064 215.937 143.659C210.331 141.103 191.574 140.425 191.574 140.425C191.289 139.037 190.656 137.743 189.735 136.666C188.814 135.588 187.635 134.762 186.307 134.265C186.101 134.175 185.883 134.113 185.661 134.08C175.25 131.678 156.401 134.08 154.091 135.682C152.12 137.205 150.773 139.396 150.302 141.842C150.302 141.842 127.295 141.226 121.196 148.279C110.201 160.907 83.0966 192.138 82.0802 192.169C81.0638 192.2 58.4874 145.723 58.4874 145.723L40.0074 146.216C40.0074 146.216 58.2103 218.01 75.6123 223.924C89.1643 228.667 124.43 188.134 124.43 188.134C124.43 188.134 115.19 221.275 122.921 280.534L123.691 280.288L226.84 250.227C221.666 238.985 210.054 225.587 211.44 183.607V183.391" stroke="white" stroke-width="2.6488" stroke-linecap="round" stroke-linejoin="round"/>
</svg>
