<svg width="327" height="511" viewBox="0 0 327 511" fill="none" xmlns="http://www.w3.org/2000/svg">
<path d="M87.6503 328.477H26.3583H26.1735C25.5929 318.659 26.0783 308.807 27.6211 299.094C41.5735 303.282 61.1315 307.656 84.5703 312.522L87.835 313.2C92.8862 314.463 99.1079 313.939 101.849 320.623C102.095 321.208 102.373 322.224 102.711 323.333H102.095L90.915 323.857C90.3774 323.874 89.8524 324.024 89.3866 324.293C88.9209 324.562 88.5288 324.942 88.2454 325.4C87.9619 325.857 87.7958 326.377 87.7618 326.914C87.7279 327.451 87.8271 327.988 88.0507 328.477H87.6503Z" fill="black"/>
<path d="M92.64 293.427C89.7885 295.432 87.5405 298.181 86.1397 301.373C84.7389 304.566 84.2388 308.081 84.6936 311.537V312.276C61.2548 307.41 41.5736 303.036 27.7444 298.847C13.9152 294.659 5.90723 290.932 4.61363 287.02C-5.33477 256.867 16.5948 195.883 28.0832 184.549C34.7668 177.988 50.1976 172.875 66.8296 169.641C67.5784 167.508 68.8997 165.622 70.6488 164.19C70.8855 164.065 71.1329 163.962 71.388 163.882C81.4902 161.833 91.901 161.833 102.003 163.882C102.599 164.038 103.177 164.255 103.728 164.529C104.818 164.972 105.777 165.685 106.515 166.601C107.254 167.517 107.747 168.606 107.948 169.765C107.948 169.765 139.056 173.276 144.908 180.637C151.93 189.384 164.25 219.537 174.476 265.799L136.068 267.093C133.768 267.192 131.577 268.104 129.885 269.666C128.193 271.228 127.11 273.339 126.828 275.624L120.668 314.186C120.083 308.857 119.682 302.42 114.015 300.726C108.348 299.032 100.925 296.414 92.64 293.427Z" fill="black"/>
<path d="M240.942 478.904H241.496V479.151C243.96 479.705 259.668 488.175 273.066 489.746C279.504 490.516 285.571 494.058 284.154 502.066H213.068V478.75L240.942 478.904Z" fill="black"/>
<path d="M132.988 424.327C134.435 428.177 138.316 444.039 145.308 454.48C148.942 459.808 150.236 466.8 143.213 471.02L96.6747 417.304L113.676 402.52C119.809 410.096 126.391 417.296 133.388 424.08L132.988 424.327Z" fill="black"/>
<path d="M135.236 379.944H30.3005V508.903H185.225V390.046" stroke="black" stroke-width="2.6488" stroke-linejoin="round"/>
<path d="M87.9583 312.061C39.8487 302.143 7.20075 294.197 4.52115 286.127C-5.42725 255.974 16.5024 194.959 27.9908 183.655C34.6744 177.064 50.1051 171.982 66.7371 168.717C67.4859 166.584 68.8072 164.698 70.5564 163.266C72.928 161.849 91.5928 160.186 101.911 162.865C103.365 163.165 104.7 163.881 105.755 164.925C106.811 165.969 107.54 167.297 107.855 168.748C107.855 168.748 138.963 172.259 144.815 179.651C151.868 188.429 164.219 217.813 174.506 264.321" stroke="black" stroke-width="2.6488" stroke-linejoin="round"/>
<path d="M27.621 298.109C20.999 343.693 33.9966 365.53 60.115 376.649C64.8332 378.407 69.7626 379.536 74.7758 380.006L135.267 379.759" stroke="black" stroke-width="2.6488" stroke-miterlimit="10"/>
<path d="M234.381 357.09C237.893 373.168 238.509 403.475 241.558 479.921" stroke="black" stroke-width="2.6488" stroke-miterlimit="10"/>
<path d="M233.642 275.225L223.971 329.525C223.641 331.689 222.593 333.68 220.995 335.177C219.398 336.674 217.343 337.59 215.162 337.779L128.121 343.262C126.624 343.284 125.141 342.973 123.779 342.35C122.417 341.727 121.212 340.808 120.25 339.661C119.288 338.513 118.594 337.165 118.219 335.716C117.844 334.266 117.797 332.751 118.081 331.281L126.828 274.701C127.111 272.419 128.195 270.311 129.887 268.754C131.58 267.197 133.77 266.292 136.068 266.2L223.971 263.12C225.448 263.154 226.899 263.511 228.223 264.167C229.547 264.822 230.711 265.76 231.633 266.914C232.555 268.068 233.213 269.41 233.56 270.846C233.907 272.282 233.935 273.777 233.642 275.225Z" stroke="black" stroke-width="2.6488" stroke-miterlimit="10"/>
<path d="M124.179 342.677L89.868 329.063C89.2398 328.746 88.7307 328.235 88.4166 327.606C88.1024 326.976 88.0001 326.262 88.1247 325.569C88.2493 324.877 88.5943 324.243 89.1083 323.763C89.6222 323.282 90.2776 322.981 90.9768 322.903L102.188 322.287" stroke="black" stroke-width="2.6488" stroke-miterlimit="10"/>
<path d="M26.8204 327.46L87.6504 327.584" stroke="black" stroke-width="2.6488" stroke-miterlimit="10"/>
<path d="M87.8663 312.061C92.9175 313.293 99.1391 312.8 101.88 319.484C102.804 321.671 104.252 330.202 108.441 326.783C110.196 325.336 109.549 321.055 109.211 319.022C108.627 315.503 107.428 312.115 105.669 309.012" stroke="black" stroke-width="2.6488" stroke-miterlimit="10" stroke-linecap="round"/>
<path d="M112.937 306.67C115.185 310.736 118.912 328.969 109.549 326.382" stroke="black" stroke-width="2.6488" stroke-miterlimit="10" stroke-linecap="round"/>
<path d="M115.124 324.719C115.124 325.243 118.481 326.444 119.097 324.38" stroke="black" stroke-width="2.6488" stroke-miterlimit="10" stroke-linecap="round"/>
<path d="M145.616 263.397C144.477 256.036 137.393 232.597 133.296 216.55" stroke="white" stroke-width="2.6488" stroke-miterlimit="10" stroke-linecap="square"/>
<path d="M83.9238 311.352C83.9238 301.557 87.7738 295.674 93.441 292.44" stroke="white" stroke-width="2.6488" stroke-miterlimit="10"/>
<path d="M53.5549 337.47C54.0477 354.349 39.0481 362.665 23.7405 363.435" stroke="black" stroke-width="2.6488" stroke-miterlimit="10" stroke-linecap="round"/>
<path d="M73.4822 97.5081C74.437 90.5165 75.6998 80.1677 80.5662 74.7469C96.1818 57.3141 114.261 92.8265 117.187 104.253C119.898 114.941 104.867 138.934 100.525 140.659C94.0258 143.246 84.755 137.117 81.7982 131.049" stroke="black" stroke-width="2.6488" stroke-miterlimit="10" stroke-linecap="round"/>
<path d="M71.3876 164.005C70.0378 146.356 70.182 128.624 71.8188 110.999" stroke="black" stroke-width="2.6488" stroke-miterlimit="10"/>
<path d="M98.7689 140.35C100.494 147.65 100.863 156.921 103.912 163.512" stroke="black" stroke-width="2.6488" stroke-miterlimit="10"/>
<path d="M76.0079 100.712C67.3839 88.0222 61.0391 104.716 64.3347 109.089C66.4907 111.892 71.0183 111.369 73.5747 110.044" stroke="black" stroke-width="2.6488" stroke-miterlimit="10" stroke-linecap="round"/>
<path d="M106.623 82.6933C107.67 82.6933 132.403 77.7653 128.922 70.9893C124.949 63.2277 77.3324 87.7137 74.468 89.1305" stroke="black" stroke-width="2.6488" stroke-miterlimit="10"/>
<path d="M71.9728 103.205C70.6594 104.413 68.9519 105.103 67.168 105.146" stroke="black" stroke-width="2.6488" stroke-miterlimit="10" stroke-linecap="round"/>
<path d="M91.5616 112.631C92.2761 112.631 92.8552 112.052 92.8552 111.337C92.8552 110.623 92.2761 110.044 91.5616 110.044C90.8472 110.044 90.268 110.623 90.268 111.337C90.268 112.052 90.8472 112.631 91.5616 112.631Z" fill="black"/>
<path d="M107.147 112.631C107.861 112.631 108.44 112.052 108.44 111.337C108.44 110.623 107.861 110.044 107.147 110.044C106.432 110.044 105.853 110.623 105.853 111.337C105.853 112.052 106.432 112.631 107.147 112.631Z" fill="black"/>
<path d="M102.188 107.61C100.679 110.69 102.435 115.803 103.02 119.099C103.389 121.347 103.975 125.721 99.3854 124.273" stroke="black" stroke-width="2.6488" stroke-miterlimit="10" stroke-linecap="round"/>
<path d="M240.942 478.904H213.222C207.609 447.567 200.184 416.581 190.985 386.104" stroke="black" stroke-width="2.6488" stroke-miterlimit="10"/>
<path d="M241.558 479.12C244.022 479.675 259.73 488.145 273.128 489.715C279.596 490.485 285.694 494.089 284.216 502.313L213.099 502.651" stroke="black" stroke-width="2.6488" stroke-linecap="round" stroke-linejoin="round"/>
<path d="M213.037 508.442H284.339V502.59H213.037V508.442Z" stroke="black" stroke-width="2.6488" stroke-linecap="round" stroke-linejoin="round"/>
<path d="M213.068 478.842V502.096" stroke="black" stroke-width="2.6488" stroke-miterlimit="10"/>
<path d="M133.912 424.85C135.206 428.824 138.594 444.439 145.493 454.511C148.819 459.408 150.205 465.63 144.939 469.911C144.517 470.258 143.977 470.429 143.432 470.389C142.888 470.349 142.379 470.1 142.013 469.695L97.6914 419.214C97.3332 418.799 97.1519 418.26 97.1864 417.713C97.221 417.166 97.4686 416.655 97.8762 416.288L113.061 403.29" fill="black"/>
<path d="M133.912 424.85C135.206 428.824 138.594 444.439 145.493 454.511C148.819 459.408 150.205 465.63 144.939 469.911C144.517 470.258 143.977 470.429 143.432 470.389C142.888 470.349 142.379 470.1 142.013 469.695L97.6914 419.214C97.3332 418.799 97.1519 418.26 97.1864 417.713C97.221 417.166 97.4686 416.655 97.8762 416.288L113.061 403.29" stroke="black" stroke-width="2.6488" stroke-miterlimit="10"/>
<path d="M86.788 126.429C87.3116 130.71 93.5024 130.71 94.6112 129.509" stroke="black" stroke-width="2.6488" stroke-miterlimit="10" stroke-linecap="round"/>
<path d="M48.1954 217.659C41.635 238.356 33.4422 264.505 35.1054 267.739C36.7686 270.973 68.6774 283.139 93.6254 292.102" stroke="white" stroke-width="2.6488" stroke-miterlimit="10" stroke-linecap="round"/>
<path d="M84.2005 310.306C59.1601 306.825 39.2941 302.852 24.1097 299.31" stroke="white" stroke-width="2.6488" stroke-miterlimit="10" stroke-linecap="square"/>
<path d="M227.082 309.042C228.746 309.566 230.378 310.151 232.01 310.767C248.889 317.204 254.772 338.672 240.542 351.484C229.762 361.186 138.902 421.062 133.173 423.988L113.338 402.736C113.338 402.736 155.195 358.507 173.028 340.674" stroke="black" stroke-width="2.6488" stroke-miterlimit="10"/>
<path d="M102.188 107.611C102.188 107.611 106.962 104.531 109.703 107.611" stroke="black" stroke-width="2.6488" stroke-miterlimit="10" stroke-linecap="round"/>
<path d="M87.4655 107.611C88.6265 107.009 89.9152 106.694 91.2231 106.694C92.5309 106.694 93.8196 107.009 94.9807 107.611" stroke="black" stroke-width="2.6488" stroke-linecap="round" stroke-linejoin="round"/>
<path d="M92.2467 421.144L139.053 474.932L143.468 471.09L96.6613 417.302L92.2467 421.144Z" stroke="black" stroke-width="2.6488" stroke-linecap="round" stroke-linejoin="round"/>
</svg>
