<svg width="233" height="551" viewBox="0 0 233 551" fill="none" xmlns="http://www.w3.org/2000/svg">
<path d="M78.4361 275.885C80.3149 278.349 93.0353 287.219 97.9017 288.205C105.078 289.406 113.918 282.291 119.185 277.979C124.375 274.803 128.709 270.406 131.81 265.171C134.91 259.935 136.683 254.021 136.974 247.943C137.264 241.866 136.063 235.809 133.475 230.302C130.888 224.795 126.992 220.005 122.128 216.349C117.265 212.693 111.58 210.282 105.571 209.327C99.5615 208.372 93.4099 208.902 87.6523 210.87C81.8948 212.838 76.7061 216.185 72.5389 220.619C68.3717 225.053 65.3525 230.438 63.7445 236.307C62.8886 239.491 62.4536 242.773 62.4509 246.07C62.4041 247.004 62.4041 247.94 62.4509 248.873C68.5901 253.002 75.2228 256.344 82.1937 258.822C82.1937 258.822 82.1937 259.53 82.1937 260.67C82.0089 264.704 81.2081 275.022 78.4361 275.885ZM44.8641 266.244C23.7661 255.588 3.09929 237.662 2.05209 221.122C1.49769 212.652 5.47088 206.03 9.10528 198.484C13.7253 189.244 40.3365 154.41 46.8661 149.204C54.2273 143.044 79.5449 139.287 79.5449 139.287C80.0716 136.759 81.4935 134.506 83.5489 132.942L84.0109 132.726C94.2517 130.446 104.854 130.31 115.15 132.326C115.343 132.36 115.529 132.422 115.704 132.511C117.066 133.112 118.252 134.049 119.152 135.234C120.051 136.419 120.635 137.814 120.848 139.287C120.848 139.287 136.032 138.671 145.149 143.66C158.179 151.512 170.431 160.588 181.739 170.764C182.135 158.53 181.682 146.284 180.384 134.112C185.267 132.16 190.572 131.502 195.784 132.203H196.338V132.634C201.882 151.576 214.172 196.698 206.934 203.874C201.39 209.418 154.574 196.914 149.8 195.281C155.313 232.056 162.797 286.634 163.136 304.467H160.641L45.6649 304.652H42.2153C42.4925 299.632 43.5089 284.201 44.6485 266.768L44.8641 266.244ZM48.2213 205.507C43.9333 210.342 39.9032 215.401 36.1477 220.66C33.8685 224.51 38.9505 230.794 46.5889 237.138C47.4513 223.525 48.1905 211.636 48.4369 205.722L48.2213 205.507Z" fill="black"/>
<path d="M213.986 18.6738H183.155C179.158 18.6738 175.917 21.9144 175.917 25.9118V39.8334C175.917 43.8309 179.158 47.0714 183.155 47.0714H213.986C217.984 47.0714 221.224 43.8309 221.224 39.8334V25.9118C221.224 21.9144 217.984 18.6738 213.986 18.6738Z" stroke="black" stroke-width="2.6488" stroke-linecap="round" stroke-linejoin="round"/>
<path d="M179.306 20.522L198.587 38.9404L218.853 19.6288" stroke="black" stroke-width="2.6488" stroke-linecap="round" stroke-linejoin="round"/>
<path d="M179.244 20.5528L198.587 38.9404L218.853 19.6288" stroke="black" stroke-width="2.6488" stroke-linecap="round" stroke-linejoin="round"/>
<path d="M177.981 45.1919L190.855 31.7939" stroke="black" stroke-width="2.6488" stroke-linecap="round" stroke-linejoin="round"/>
<path d="M218.883 44.5759L206.625 31.7939" stroke="black" stroke-width="2.6488" stroke-linecap="round" stroke-linejoin="round"/>
<path d="M208.288 62.1014H170.866C169.059 62.1941 167.289 61.57 165.939 60.3647C164.59 59.1593 163.77 57.4702 163.659 55.6642V8.44782C163.762 6.63889 164.58 4.94492 165.931 3.73796C167.282 2.531 169.057 1.90973 170.866 2.01062H223.812C225.621 1.90973 227.396 2.531 228.747 3.73796C230.098 4.94492 230.915 6.63889 231.019 8.44782V55.6642C230.908 57.4702 230.088 59.1593 228.739 60.3647C227.389 61.57 225.619 62.1941 223.812 62.1014H216.635" stroke="black" stroke-width="2.6488" stroke-linecap="round" stroke-linejoin="round"/>
<path d="M216.851 58.2819C216.851 58.2819 215.064 72.5115 211.399 75.2835C207.734 78.0555 208.658 55.6023 208.658 55.6023" stroke="black" stroke-width="2.6488" stroke-linecap="round" stroke-linejoin="round"/>
<path d="M191.81 530.57C198.216 531.34 204.13 534.882 202.898 542.89H131.719V519.574C131.719 519.882 131.719 520.128 131.719 520.344C131.719 520.56 154.08 520.806 156.02 520.344H156.914C161.195 520.806 178.381 528.999 191.81 530.57Z" fill="black"/>
<path d="M75.2939 542.089V542.797L37.9951 542.458L7.74951 528.198L17.4823 508.271H17.8519L38.7959 516.586L39.3195 516.833C50.4383 522.5 50.9927 530.077 56.6907 529.8C66.5467 529.492 74.4931 536.822 75.2939 542.089Z" fill="black"/>
<path d="M205.455 119.082C204.569 118.563 203.578 118.249 202.554 118.164C201.531 118.078 200.501 118.224 199.541 118.589C197.355 119.513 195.63 115.971 197.693 113.969C198.109 113.584 198.563 113.244 199.049 112.952V112.675C194.152 111.505 196.277 108.517 197.848 107.347C198.373 106.971 198.929 106.641 199.511 106.361C194.767 105.776 196.431 101.526 198.155 100.417C199.77 99.3779 201.568 98.6566 203.453 98.2917L202.19 85.5713C202.159 84.8511 201.985 84.1442 201.68 83.4911C201.375 82.8379 200.944 82.2514 200.412 81.7651C199.88 81.2787 199.257 80.9021 198.579 80.6568C197.901 80.4114 197.182 80.3022 196.461 80.3352L182.663 81.7213C181.238 81.9348 179.954 82.7009 179.09 83.8537C178.225 85.0065 177.849 86.4534 178.043 87.8813L179.799 104.76V104.975C183.587 103.158 188.238 102.48 189.039 105.16C190.332 108.702 180.445 114.4 180.445 114.4L181.185 121.484C181.22 122.204 181.397 122.91 181.706 123.562C182.015 124.214 182.449 124.798 182.985 125.282C183.52 125.765 184.145 126.138 184.824 126.38C185.504 126.621 186.224 126.727 186.944 126.689L200.712 125.334C203.699 125.057 207.519 121.484 205.455 119.082ZM192.889 121.915C192.414 121.915 191.949 121.774 191.554 121.51C191.159 121.246 190.851 120.871 190.669 120.432C190.487 119.993 190.44 119.51 190.532 119.044C190.625 118.578 190.854 118.15 191.19 117.814C191.526 117.478 191.954 117.249 192.42 117.157C192.886 117.064 193.369 117.111 193.808 117.293C194.247 117.475 194.622 117.783 194.886 118.178C195.15 118.573 195.291 119.038 195.291 119.513C195.291 120.15 195.038 120.761 194.587 121.212C194.137 121.662 193.526 121.915 192.889 121.915Z" fill="black"/>
<path d="M181.739 170.764C182.148 158.427 181.685 146.076 180.353 133.804" stroke="black" stroke-width="2.6488" stroke-linecap="round" stroke-linejoin="round"/>
<path d="M196.584 132.264C188.976 130.139 179.028 134.513 179.028 134.513" stroke="black" stroke-width="2.6488" stroke-miterlimit="10"/>
<path d="M119.183 277.825C113.916 282.137 105.077 289.251 97.9004 288.05C92.726 287.157 78.6196 277.147 78.2192 275.484" stroke="black" stroke-width="2.6488" stroke-miterlimit="10"/>
<path d="M44.6476 266.799C43.508 284.232 42.4916 299.663 42.2144 304.683L163.135 304.467C162.704 282.107 151.031 201.811 146.134 171.504" stroke="black" stroke-width="2.6488" stroke-linecap="round" stroke-linejoin="round"/>
<path d="M48.4359 205.845C48.1895 211.759 47.4503 223.679 46.5879 237.261" stroke="black" stroke-width="2.6488" stroke-linecap="round" stroke-linejoin="round"/>
<path d="M39.5044 516.956C47.6048 510.365 109.39 402.596 122.818 329.631" stroke="black" stroke-width="2.6488" stroke-miterlimit="10" stroke-linecap="round"/>
<path d="M45.6643 304.929C41.9683 375.338 17.9443 508.209 17.9443 508.209" stroke="black" stroke-width="2.6488" stroke-miterlimit="10" stroke-linecap="round"/>
<path d="M107.418 382.391C113.208 413.838 130.21 510.18 131.842 520.467C131.842 520.467 155.99 520.96 156.298 520.467C160.363 511.597 163.135 417.503 160.64 305.576" stroke="black" stroke-width="2.6488" stroke-miterlimit="10" stroke-linecap="round"/>
<path d="M179.737 104.79L178.105 87.9116C177.911 86.4837 178.287 85.0368 179.151 83.884C180.016 82.7312 181.3 81.9651 182.725 81.7516L196.523 80.3656C197.975 80.307 199.392 80.8242 200.465 81.8048C201.538 82.7853 202.18 84.1499 202.252 85.6016L203.545 98.5992" stroke="black" stroke-width="2.6488" stroke-miterlimit="10"/>
<path d="M212.139 115.016C218.699 106.084 204.839 102.203 197.817 107.347C196.246 108.517 194.121 111.505 199.018 112.675" stroke="black" stroke-width="2.6488" stroke-miterlimit="10"/>
<path d="M211.984 106.792C217.62 97.5519 204.777 95.8887 198.031 100.386C196.368 101.494 194.643 105.745 199.387 106.33" stroke="black" stroke-width="2.6488" stroke-miterlimit="10"/>
<path d="M195.507 132.048C195.507 132.048 207.827 133.187 212.139 124.933C213.163 123.202 213.542 121.164 213.209 119.18C212.877 117.197 211.854 115.394 210.322 114.091C208.553 112.607 206.317 111.794 204.008 111.794C201.699 111.794 199.463 112.607 197.694 114.091C195.63 116.093 197.355 119.635 199.542 118.711C200.502 118.346 201.531 118.201 202.555 118.286C203.578 118.371 204.569 118.685 205.455 119.204C207.519 121.637 203.7 125.179 200.835 125.364L187.068 126.719C186.335 126.774 185.599 126.68 184.903 126.444C184.208 126.209 183.566 125.836 183.018 125.347C182.469 124.859 182.024 124.265 181.709 123.601C181.394 122.938 181.216 122.217 181.185 121.483L180.507 114.369C180.507 114.369 190.394 108.732 189.101 105.129C187.807 101.525 179.245 104.174 175.918 107.469C171.144 112.182 169.758 129.923 180.384 133.834" stroke="black" stroke-width="2.6488" stroke-linejoin="round"/>
<path d="M149.553 195.189C152.232 196.297 201.235 209.541 206.933 203.874C214.171 196.698 201.882 151.514 196.338 132.634" stroke="black" stroke-width="2.6488" stroke-miterlimit="10"/>
<path d="M82.3159 260.423C88.4759 261.809 95.6523 257.343 100.272 256.696C102.66 256.497 105.061 256.497 107.449 256.696C108.116 256.772 108.74 257.063 109.226 257.526C109.712 257.989 110.034 258.598 110.142 259.261C110.25 259.923 110.139 260.603 109.825 261.196C109.511 261.79 109.012 262.265 108.404 262.548C106.894 263.411 102.644 264.858 100.488 265.628C97.4079 266.953 97.4079 273.79 99.3483 275.392C103.63 279.119 117.828 278.041 117.828 278.041" stroke="black" stroke-width="2.6488" stroke-miterlimit="10"/>
<path d="M66.547 321.684C63.467 338.285 46.989 343.244 31.8662 340.687" stroke="black" stroke-width="2.6488" stroke-miterlimit="10" stroke-linecap="round"/>
<path d="M157.037 520.497C161.195 520.805 178.381 528.998 191.81 530.569C198.247 531.339 204.377 534.943 202.867 543.166L131.904 543.443" stroke="black" stroke-width="2.6488" stroke-linecap="round" stroke-linejoin="round"/>
<path d="M131.689 548.864H202.991V543.012H131.689V548.864Z" stroke="black" stroke-width="2.6488" stroke-linecap="round" stroke-linejoin="round"/>
<path d="M131.719 519.697V542.951" stroke="black" stroke-width="2.6488" stroke-miterlimit="10"/>
<path d="M4.48438 534.48L36.6396 548.956L75.3244 548.648V542.796L37.9948 542.458L7.74918 528.197L4.48438 534.48Z" stroke="black" stroke-width="2.6488" stroke-linecap="round" stroke-linejoin="round"/>
<path d="M75.2938 542.089C74.493 536.822 66.5466 529.492 56.8138 529.954C51.0234 530.231 50.6537 522.439 38.9189 516.741L17.6053 508.271L7.87256 528.198" stroke="black" stroke-width="2.6488" stroke-linecap="round" stroke-linejoin="round"/>
<path d="M62.6045 249.242C62.6045 248.133 62.6045 246.994 62.6045 245.823C62.6006 239.21 64.3536 232.714 67.6842 227.001C71.0149 221.287 75.8036 216.561 81.5603 213.306C87.3171 210.051 93.8353 208.384 100.448 208.475C107.061 208.566 113.531 210.412 119.196 213.824C124.861 217.237 129.517 222.093 132.689 227.896C135.861 233.699 137.435 240.24 137.249 246.851C137.063 253.462 135.124 259.904 131.631 265.52C128.137 271.135 123.215 275.722 117.367 278.81" stroke="black" stroke-width="2.6488" stroke-miterlimit="10"/>
<path d="M63.4976 236.091C63.4976 236.091 108.219 226.851 135.323 256.481" stroke="black" stroke-width="2.6488" stroke-miterlimit="10"/>
<path d="M100.52 276.5C100.52 276.5 141.73 259.838 122.295 216.256" stroke="black" stroke-width="2.6488" stroke-miterlimit="10"/>
<path d="M97.1926 257.434C104.523 255.278 111.977 248.995 113.024 240.587C114.533 228.513 108.958 213.36 79.3594 214.376" stroke="black" stroke-width="2.6488" stroke-miterlimit="10"/>
<path d="M73.0153 180.343C59.3414 192.52 46.9562 206.072 36.0553 220.783C30.2649 230.578 72.2453 256.173 82.3169 258.575C82.3169 258.575 81.9165 275.792 78.0973 275.946C54.2273 276.901 3.71529 247.364 2.05209 221.245C1.49769 212.775 5.47088 206.153 9.10528 198.607C13.7253 189.244 40.3365 154.409 46.8661 149.204C54.2273 143.044 79.5449 139.287 79.5449 139.287C80.0716 136.758 81.4934 134.505 83.5489 132.942C85.9205 131.525 104.801 129.461 115.15 132.326C116.646 132.852 117.969 133.78 118.974 135.008C119.979 136.235 120.627 137.716 120.848 139.287C120.848 139.287 136.032 138.671 145.149 143.66C160.287 152.775 174.429 163.448 187.345 175.507" stroke="black" stroke-width="2.6488" stroke-linecap="round" stroke-linejoin="round"/>
<path d="M41.1672 228.946C53.7028 242.806 77.3264 255.095 84.6876 256.912C84.6876 256.912 83.7328 277.302 79.5132 277.979C67.1932 279.95 46.9576 271.08 30.0176 260.67" stroke="white" stroke-width="2.6488" stroke-linecap="round" stroke-linejoin="round"/>
<path d="M86.0127 66.0433C86.9675 59.0517 88.2303 48.7029 93.0967 43.2821C108.712 25.8493 126.792 61.3617 129.687 72.8193C132.428 83.4761 117.367 107.469 113.055 109.194C106.525 111.781 97.2855 105.652 94.3287 99.5845" stroke="black" stroke-width="2.6488" stroke-miterlimit="10" stroke-linecap="round"/>
<path d="M83.7955 132.572C83.7955 114.339 82.8099 97.7684 84.3499 79.5656" stroke="black" stroke-width="2.6488" stroke-miterlimit="10"/>
<path d="M111.299 108.949C113.024 116.218 113.363 125.488 116.412 132.08" stroke="black" stroke-width="2.6488" stroke-miterlimit="10"/>
<path d="M88.5081 69.3081C79.9149 56.6185 73.5393 73.2813 76.8657 77.6549C78.9909 80.4577 83.5493 79.9649 86.1057 78.6405" stroke="black" stroke-width="2.6488" stroke-miterlimit="10" stroke-linecap="round"/>
<path d="M119.153 51.2602C120.201 51.2602 144.902 46.3322 141.422 39.5562C137.479 31.8254 89.8626 56.2806 86.9058 57.5742" stroke="black" stroke-width="2.6488" stroke-miterlimit="10"/>
<path d="M105.232 70.6327C103.967 70.2624 102.633 70.1892 101.335 70.419C100.037 70.6487 98.8089 71.1751 97.7476 71.9571" stroke="black" stroke-width="2.6488" stroke-miterlimit="10" stroke-linecap="round"/>
<path d="M84.5025 71.7722C83.186 72.9752 81.4804 73.664 79.6978 73.7126" stroke="black" stroke-width="2.6488" stroke-miterlimit="10" stroke-linecap="round"/>
<path d="M102.891 78.8877C103.606 78.8877 104.185 78.3086 104.185 77.5941C104.185 76.8797 103.606 76.3005 102.891 76.3005C102.177 76.3005 101.598 76.8797 101.598 77.5941C101.598 78.3086 102.177 78.8877 102.891 78.8877Z" fill="black"/>
<path d="M119.8 78.4561C120.514 78.4561 121.094 77.8769 121.094 77.1625C121.094 76.4481 120.514 75.8689 119.8 75.8689C119.086 75.8689 118.506 76.4481 118.506 77.1625C118.506 77.8769 119.086 78.4561 119.8 78.4561Z" fill="black"/>
<path d="M121.956 71.1254C119.923 70.1706 115.303 70.4478 114.502 72.4498C113.178 75.5298 115.149 82.3674 115.981 86.2174C116.566 88.8662 117.49 93.9482 112.901 92.5622" stroke="black" stroke-width="2.6488" stroke-miterlimit="10" stroke-linecap="round"/>
<path d="M106.586 99.1232C107.134 99.7106 107.806 100.169 108.554 100.464C109.301 100.76 110.104 100.886 110.906 100.833C111.708 100.78 112.488 100.549 113.19 100.158C113.891 99.766 114.497 99.2234 114.964 98.5688" stroke="black" stroke-width="2.6488" stroke-miterlimit="10" stroke-linecap="round"/>
<path d="M216.389 23.7866C220.778 23.7866 224.336 20.2289 224.336 15.8402C224.336 11.4515 220.778 7.8938 216.389 7.8938C212.001 7.8938 208.443 11.4515 208.443 15.8402C208.443 20.2289 212.001 23.7866 216.389 23.7866Z" fill="white"/>
<path d="M216.296 5.95386C214.328 5.95386 212.405 6.53732 210.769 7.63047C209.133 8.72361 207.858 10.2773 207.105 12.0952C206.352 13.913 206.155 15.9133 206.539 17.8431C206.923 19.7729 207.87 21.5455 209.261 22.9368C210.653 24.3281 212.425 25.2756 214.355 25.6595C216.285 26.0434 218.285 25.8463 220.103 25.0934C221.921 24.3404 223.475 23.0653 224.568 21.4293C225.661 19.7933 226.244 17.8699 226.244 15.9023C226.244 13.2638 225.196 10.7334 223.331 8.86768C221.465 7.00199 218.935 5.95386 216.296 5.95386ZM217.99 20.6763C217.99 20.8502 217.956 21.0224 217.889 21.1831C217.823 21.3438 217.725 21.4898 217.602 21.6128C217.479 21.7357 217.333 21.8333 217.172 21.8998C217.012 21.9664 216.84 22.0007 216.666 22.0007C216.312 22.0008 215.971 21.8622 215.718 21.6147C215.465 21.3672 215.319 21.0303 215.31 20.6763V14.7935L215.156 15.0399C215.063 15.1893 214.941 15.3186 214.797 15.4202C214.653 15.5218 214.49 15.5937 214.318 15.6317C214.146 15.6696 213.968 15.6729 213.795 15.6413C213.622 15.6096 213.457 15.5437 213.309 15.4474C213.162 15.3511 213.035 15.2264 212.936 15.0804C212.837 14.9345 212.769 14.7704 212.734 14.5976C212.7 14.4249 212.7 14.247 212.735 14.0743C212.77 13.9017 212.84 13.7378 212.939 13.5923L215.557 9.61906C215.708 9.37791 215.937 9.19497 216.205 9.09992C216.473 9.00488 216.766 9.0033 217.035 9.09546C217.309 9.17506 217.55 9.34096 217.722 9.56849C217.894 9.79602 217.988 10.073 217.99 10.3583V20.6763Z" fill="hsl(42, 78%, 60%)" />
</svg>
