<svg width="1512" height="982" viewBox="0 0 1512 982" fill="none" xmlns="http://www.w3.org/2000/svg">
    <rect width="1512" height="982" fill="white"/>
    <path d="M434.214 431.145H418.666C405.982 431.145 395.344 420.2 395.344 407.21C395.344 400.663 398.106 394.731 403.016 390.332L413.04 380.513C422.962 370.693 422.962 354.634 413.04 344.814L390.23 322.208C385.729 317.708 379.081 315.048 372.33 315.048C365.578 315.048 359.032 317.708 354.429 322.208L344.814 331.823C340.211 336.938 334.074 339.7 327.425 339.7C314.332 339.7 303.387 329.062 303.387 316.48V300.83C303.387 287.021 292.238 275.156 278.327 275.156H247.231C233.32 275.156 222.273 286.919 222.273 300.83V316.378C222.273 328.959 211.328 339.597 198.235 339.597C191.688 339.597 185.653 336.835 181.255 332.028L171.333 322.208C166.832 317.605 160.184 315.048 153.433 315.048C146.681 315.048 140.135 317.708 135.532 322.208L112.517 344.712C102.697 354.531 102.697 370.591 112.517 380.308L122.132 389.923C127.247 394.526 130.111 400.663 130.111 407.21C130.111 420.303 119.473 431.145 106.789 431.145H91.2412C77.2277 431.145 65.4645 442.09 65.4645 456.001V471.549V487.097C65.4645 500.906 77.2277 511.953 91.2412 511.953H106.789C119.473 511.953 130.111 522.898 130.111 535.889C130.111 542.435 127.247 548.572 122.132 553.175L112.517 562.688C102.697 572.508 102.697 588.567 112.517 598.284L135.327 620.992C139.828 625.595 146.477 628.153 153.228 628.153C159.979 628.153 166.525 625.493 171.128 620.992L181.05 611.173C185.346 606.365 191.484 603.603 198.03 603.603C211.123 603.603 222.068 614.241 222.068 626.823V642.371C222.068 656.18 233.115 668.045 247.129 668.045H278.224C292.135 668.045 303.183 656.282 303.183 642.371V626.823C303.183 614.241 314.127 603.603 327.22 603.603C333.767 603.603 339.904 606.467 344.609 611.48L354.224 621.095C358.827 625.595 365.374 628.255 372.125 628.255C378.876 628.255 385.422 625.595 390.025 621.095L412.836 598.387C422.655 588.567 422.655 572.508 412.836 562.688L402.811 552.868C397.902 548.47 395.14 542.435 395.14 535.991C395.14 522.898 405.778 512.055 418.462 512.055H434.009C447.921 512.055 457.843 501.111 457.843 487.199V471.549V456.001C458.047 442.09 448.125 431.145 434.214 431.145ZM344.507 471.549C344.507 516.658 307.99 553.38 262.676 553.38C217.363 553.38 180.846 516.658 180.846 471.549C180.846 426.44 217.363 389.719 262.676 389.719C307.99 389.719 344.507 426.44 344.507 471.549Z" fill="black"/>
    <path d="M804.498 221.454H788.95C776.266 221.454 765.628 210.509 765.628 197.519C765.628 190.972 768.39 185.04 773.3 180.641L783.324 170.822C793.246 161.002 793.246 144.943 783.324 135.123L760.514 112.517C756.013 108.016 749.364 105.357 742.613 105.357C735.862 105.357 729.316 108.016 724.713 112.517L715.098 122.132C710.495 127.247 704.357 130.008 697.709 130.008C684.616 130.008 673.671 119.37 673.671 106.789V91.1389C673.671 77.33 662.522 65.4645 648.61 65.4645H617.515C603.603 65.4645 592.556 77.2277 592.556 91.1389V106.687C592.556 119.268 581.611 129.906 568.519 129.906C561.972 129.906 555.937 127.144 551.539 122.337L541.617 112.517C537.116 107.914 530.467 105.357 523.716 105.357C516.965 105.357 510.419 108.016 505.816 112.517L482.801 135.021C472.981 144.84 472.981 160.9 482.801 170.617L492.416 180.232C497.53 184.835 500.395 190.972 500.395 197.519C500.395 210.612 489.757 221.454 477.073 221.454H461.525C447.511 221.454 435.748 232.399 435.748 246.31V261.858V277.406C435.748 291.215 447.511 302.262 461.525 302.262H477.073C489.757 302.262 500.395 313.207 500.395 326.197C500.395 332.744 497.53 338.881 492.416 343.484L482.801 352.997C472.981 362.817 472.981 378.876 482.801 388.593L505.611 411.301C510.112 415.904 516.761 418.462 523.512 418.462C530.263 418.462 536.809 415.802 541.412 411.301L551.334 401.482C555.63 396.674 561.768 393.912 568.314 393.912C581.407 393.912 592.352 404.55 592.352 417.132V432.68C592.352 446.489 603.399 458.354 617.412 458.354H648.508C662.419 458.354 673.466 446.591 673.466 432.68V417.132C673.466 404.55 684.411 393.912 697.504 393.912C704.051 393.912 710.188 396.776 714.893 401.789L724.508 411.404C729.111 415.904 735.658 418.564 742.409 418.564C749.16 418.564 755.706 415.904 760.309 411.404L783.119 388.696C792.939 378.876 792.939 362.817 783.119 352.997L773.095 343.177C768.185 338.779 765.424 332.744 765.424 326.3C765.424 313.207 776.062 302.364 788.745 302.364H804.293C818.204 302.364 828.126 291.419 828.126 277.508V261.858V246.31C828.331 232.399 818.409 221.454 804.498 221.454ZM714.791 261.858C714.791 306.967 678.274 343.689 632.96 343.689C587.646 343.689 551.13 306.967 551.13 261.858C551.13 216.749 587.646 180.027 632.96 180.027C678.274 180.027 714.791 216.749 714.791 261.858Z" fill="black"/>
    <path d="M152.295 817.515V724.424H190.749C197.719 724.424 203.734 725.682 208.795 728.197C213.886 730.682 217.81 734.257 220.568 738.924C223.325 743.56 224.704 749.06 224.704 755.424C224.704 761.879 223.295 767.363 220.477 771.879C217.659 776.363 213.659 779.788 208.477 782.151C203.295 784.485 197.159 785.651 190.068 785.651H165.749V767.924H185.886C189.28 767.924 192.113 767.485 194.386 766.606C196.689 765.697 198.431 764.333 199.613 762.515C200.795 760.666 201.386 758.303 201.386 755.424C201.386 752.545 200.795 750.166 199.613 748.288C198.431 746.379 196.689 744.954 194.386 744.015C192.083 743.045 189.249 742.56 185.886 742.56H174.795V817.515H152.295ZM204.704 774.969L227.886 817.515H203.34L180.613 774.969H204.704ZM237.045 817.515V724.424H301.954V742.697H259.545V761.788H298.636V780.106H259.545V799.242H301.954V817.515H237.045ZM366.363 752.333C366.06 749 364.712 746.409 362.318 744.56C359.954 742.682 356.575 741.742 352.181 741.742C349.272 741.742 346.848 742.121 344.909 742.879C342.969 743.636 341.515 744.682 340.545 746.015C339.575 747.318 339.075 748.818 339.045 750.515C338.984 751.909 339.257 753.136 339.863 754.197C340.499 755.257 341.409 756.197 342.59 757.015C343.802 757.803 345.257 758.5 346.954 759.106C348.651 759.712 350.56 760.242 352.681 760.697L360.681 762.515C365.287 763.515 369.348 764.848 372.863 766.515C376.409 768.182 379.378 770.166 381.772 772.469C384.196 774.772 386.03 777.424 387.272 780.424C388.515 783.424 389.151 786.788 389.181 790.515C389.151 796.394 387.666 801.439 384.727 805.651C381.787 809.863 377.56 813.091 372.045 815.333C366.56 817.575 359.939 818.697 352.181 818.697C344.393 818.697 337.606 817.53 331.818 815.197C326.03 812.863 321.53 809.318 318.318 804.56C315.106 799.803 313.454 793.788 313.363 786.515H334.909C335.09 789.515 335.893 792.015 337.318 794.015C338.742 796.015 340.696 797.53 343.181 798.56C345.696 799.591 348.606 800.106 351.909 800.106C354.939 800.106 357.515 799.697 359.636 798.879C361.787 798.06 363.439 796.924 364.59 795.469C365.742 794.015 366.333 792.348 366.363 790.469C366.333 788.712 365.787 787.212 364.727 785.969C363.666 784.697 362.03 783.606 359.818 782.697C357.636 781.757 354.848 780.894 351.454 780.106L341.727 777.833C333.666 775.985 327.318 773 322.681 768.879C318.045 764.727 315.742 759.121 315.772 752.06C315.742 746.303 317.287 741.257 320.409 736.924C323.53 732.591 327.848 729.212 333.363 726.788C338.878 724.363 345.166 723.151 352.227 723.151C359.439 723.151 365.696 724.379 370.999 726.833C376.333 729.257 380.469 732.666 383.409 737.06C386.348 741.454 387.848 746.545 387.909 752.333H366.363ZM397.499 742.697V724.424H476.181V742.697H447.954V817.515H425.772V742.697H397.499ZM534.806 817.515H510.624L542.034 724.424H571.988L603.397 817.515H579.215L557.352 747.879H556.624L534.806 817.515ZM531.579 780.879H582.124V797.969H531.579V780.879ZM613.42 817.515V724.424H651.874C658.844 724.424 664.859 725.788 669.92 728.515C675.011 731.212 678.935 734.985 681.693 739.833C684.45 744.651 685.829 750.257 685.829 756.651C685.829 763.075 684.42 768.697 681.602 773.515C678.814 778.303 674.829 782.015 669.647 784.651C664.465 787.288 658.314 788.606 651.193 788.606H627.465V770.879H647.011C650.405 770.879 653.238 770.288 655.511 769.106C657.814 767.924 659.556 766.272 660.738 764.151C661.92 762 662.511 759.5 662.511 756.651C662.511 753.772 661.92 751.288 660.738 749.197C659.556 747.075 657.814 745.439 655.511 744.288C653.208 743.136 650.374 742.56 647.011 742.56H635.92V817.515H613.42ZM719.42 724.424V817.515H696.92V724.424H719.42Z" fill="black"/>
    </svg>
    